<svg id="visual" viewBox="0 0 900 600" width="900" height="600" xmlns="http://www.w3.org/2000/svg" xmlns:xlink="http://www.w3.org/1999/xlink" version="1.1"><rect x="0" y="0" width="900" height="600" fill="#f9f9f9"></rect><defs><linearGradient id="grad1_0" x1="33.3%" y1="100%" x2="100%" y2="0%"><stop offset="20%" stop-color="#f9f9f9" stop-opacity="1"></stop><stop offset="80%" stop-color="#f9f9f9" stop-opacity="1"></stop></linearGradient></defs><defs><linearGradient id="grad2_0" x1="0%" y1="100%" x2="66.7%" y2="0%"><stop offset="20%" stop-color="#f9f9f9" stop-opacity="1"></stop><stop offset="80%" stop-color="#f9f9f9" stop-opacity="1"></stop></linearGradient></defs><g transform="translate(900, 600)"><path d="M-324.5 0C-314.1 -39.5 -303.6 -79 -290.1 -120.2C-276.6 -161.3 -259.9 -204.2 -229.5 -229.5C-199 -254.7 -154.6 -262.4 -114 -275.3C-73.5 -288.2 -36.7 -306.4 0 -324.5L0 0Z" fill="#1085fa"></path></g><g transform="translate(0, 0)"><path d="M324.5 0C309.6 38.5 294.8 76.9 280.9 116.3C267 155.7 254 196.1 228.4 228.4C202.7 260.7 164.4 285.1 124.2 299.8C84 314.5 42 319.5 0 324.5L0 0Z" fill="#1085fa"></path></g></svg>