<svg width="1440" height="848" viewBox="0 0 1440 848" fill="none" xmlns="http://www.w3.org/2000/svg">
<rect width="1440" height="848" fill="white"/>
<g clip-path="url(#22222222)">
<path d="M521.007 35.5C521.007 116.413 455.636 182 375.003 182C294.371 182 229 116.413 229 35.5C229 -45.4129 294.371 -111 375.003 -111C455.636 -111 521.007 -45.4129 521.007 35.5Z" stroke="#056FDA" stroke-opacity="0.15" stroke-width="2"/>
<path d="M263.007 80.5C263.007 161.413 197.636 227 117.003 227C36.3711 227 -29 161.413 -29 80.5C-29 -0.412895 36.3711 -66 117.003 -66C197.636 -66 263.007 -0.412895 263.007 80.5Z" stroke="#056FDA" stroke-opacity="0.15" stroke-width="2"/>
<path d="M423.007 257.5C423.007 338.413 357.636 404 277.003 404C196.371 404 131 338.413 131 257.5C131 176.587 196.371 111 277.003 111C357.636 111 423.007 176.587 423.007 257.5Z" stroke="#056FDA" stroke-opacity="0.15" stroke-width="2"/>
<path d="M513.007 494.5C513.007 575.413 447.636 641 367.003 641C286.371 641 221 575.413 221 494.5C221 413.587 286.371 348 367.003 348C447.636 348 513.007 413.587 513.007 494.5Z" stroke="#056FDA" stroke-opacity="0.15" stroke-width="2"/>
<path d="M202.007 318.5C202.007 399.413 136.636 465 56.0034 465C-24.6289 465 -90 399.413 -90 318.5C-90 237.587 -24.6289 172 56.0034 172C136.636 172 202.007 237.587 202.007 318.5Z" stroke="#056FDA" stroke-opacity="0.15" stroke-width="2"/>
<path d="M207.007 752.5C207.007 833.413 141.636 899 61.0034 899C-19.6289 899 -85 833.413 -85 752.5C-85 671.587 -19.6289 606 61.0034 606C141.636 606 207.007 671.587 207.007 752.5Z" stroke="#056FDA" stroke-opacity="0.15" stroke-width="2"/>
<path d="M818.007 752.5C818.007 833.413 752.636 899 672.003 899C591.371 899 526 833.413 526 752.5C526 671.587 591.371 606 672.003 606C752.636 606 818.007 671.587 818.007 752.5Z" stroke="#056FDA" stroke-opacity="0.15" stroke-width="2"/>
<path d="M895.007 584.5C895.007 665.413 829.636 731 749.003 731C668.371 731 603 665.413 603 584.5C603 503.587 668.371 438 749.003 438C829.636 438 895.007 503.587 895.007 584.5Z" stroke="#056FDA" stroke-opacity="0.15" stroke-width="2"/>
<path d="M1070.01 777.5C1070.01 858.413 1004.64 924 924.003 924C843.371 924 778 858.413 778 777.5C778 696.587 843.371 631 924.003 631C1004.64 631 1070.01 696.587 1070.01 777.5Z" stroke="#056FDA" stroke-opacity="0.15" stroke-width="2"/>
<path d="M437.007 732.5C437.007 813.413 371.636 879 291.003 879C210.371 879 145 813.413 145 732.5C145 651.587 210.371 586 291.003 586C371.636 586 437.007 651.587 437.007 732.5Z" stroke="#056FDA" stroke-opacity="0.15" stroke-width="2"/>
<path d="M651.007 899.5C651.007 980.413 585.636 1046 505.003 1046C424.371 1046 359 980.413 359 899.5C359 818.587 424.371 753 505.003 753C585.636 753 651.007 818.587 651.007 899.5Z" stroke="#056FDA" stroke-opacity="0.15" stroke-width="2"/>
<path d="M639.007 645.5C639.007 726.413 573.636 792 493.003 792C412.371 792 347 726.413 347 645.5C347 564.587 412.371 499 493.003 499C573.636 499 639.007 564.587 639.007 645.5Z" stroke="#056FDA" stroke-opacity="0.15" stroke-width="2"/>
<path d="M584.007 263.5C584.007 344.413 518.636 410 438.003 410C357.371 410 292 344.413 292 263.5C292 182.587 357.371 117 438.003 117C518.636 117 584.007 182.587 584.007 263.5Z" stroke="#056FDA" stroke-opacity="0.15" stroke-width="2"/>
<path d="M259.007 538.5C259.007 619.413 193.636 685 113.003 685C32.3711 685 -33 619.413 -33 538.5C-33 457.587 32.3711 392 113.003 392C193.636 392 259.007 457.587 259.007 538.5Z" stroke="#056FDA" stroke-opacity="0.15" stroke-width="2"/>
</g>
<defs>
<clipPath id="22222222">
<rect width="1440" height="848" fill="white"/>
</clipPath>
</defs>
</svg>
