<svg width="960" height="540" viewBox="0 0 960 540" fill="none" xmlns="http://www.w3.org/2000/svg">
<g opacity="0.3" clip-path="url(#clip0)">
<path d="M147.068 169.71H104.932C104.578 169.705 104.233 169.603 103.934 169.416C103.634 169.229 103.392 168.964 103.234 168.649C103.076 168.335 103.008 167.984 103.037 167.633C103.066 167.283 103.191 166.947 103.399 166.663L124.712 138.762C124.891 138.525 125.122 138.333 125.388 138.201C125.654 138.069 125.948 138 126.245 138V138C126.544 138.001 126.839 138.071 127.106 138.206C127.372 138.341 127.603 138.537 127.779 138.777L148.617 166.648C148.83 166.931 148.96 167.267 148.992 167.619C149.024 167.972 148.957 168.326 148.798 168.642C148.638 168.959 148.394 169.225 148.091 169.411C147.788 169.597 147.439 169.695 147.083 169.695L147.068 169.71ZM108.842 165.87H143.204L126.245 143.135L108.842 165.87Z" fill="#74C69D"/>
<path d="M147.068 202H104.932C104.571 201.995 104.218 201.892 103.913 201.701C103.607 201.51 103.36 201.239 103.199 200.918C103.05 200.603 102.99 200.254 103.025 199.908C103.06 199.562 103.189 199.231 103.399 198.952L124.712 171.082C124.893 170.848 125.125 170.658 125.391 170.526C125.656 170.394 125.948 170.323 126.245 170.32C126.544 170.321 126.839 170.391 127.106 170.526C127.372 170.661 127.603 170.857 127.779 171.097L148.617 198.952C148.832 199.238 148.964 199.577 148.996 199.932C149.029 200.287 148.961 200.645 148.801 200.964C148.634 201.277 148.384 201.538 148.079 201.721C147.774 201.903 147.424 202 147.068 202V202ZM108.842 198.145H143.204L126.245 175.41L108.842 198.145Z" fill="#74C69D"/>
</g>
<g opacity="0.3" clip-path="url(#clip1)">
<path d="M886.522 85.629H832.478C832.024 85.622 831.582 85.4915 831.198 85.2518C830.814 85.012 830.503 84.6723 830.3 84.2695C830.098 83.8667 830.01 83.4164 830.047 82.9676C830.084 82.5188 830.245 82.0887 830.511 81.7243L857.848 45.9762C858.077 45.6731 858.374 45.4271 858.715 45.2576C859.057 45.0882 859.433 45 859.815 45V45C860.198 45.0007 860.576 45.0913 860.918 45.2643C861.26 45.4373 861.556 45.6879 861.781 45.9957L888.508 81.7048C888.782 82.0673 888.949 82.4985 888.99 82.9499C889.031 83.4013 888.945 83.8551 888.74 84.2605C888.536 84.6658 888.222 85.0068 887.834 85.245C887.446 85.4833 886.998 85.6095 886.542 85.6095L886.522 85.629ZM837.493 80.7091H881.566L859.815 51.5795L837.493 80.7091Z" fill="#3B82F6"/>
<path d="M886.522 127H832.478C832.015 126.994 831.563 126.862 831.17 126.617C830.778 126.373 830.462 126.025 830.256 125.614C830.064 125.21 829.987 124.763 830.032 124.319C830.077 123.876 830.243 123.453 830.511 123.095L857.848 87.3862C858.08 87.0864 858.378 86.8428 858.718 86.6737C859.059 86.5046 859.434 86.4144 859.815 86.41C860.198 86.4107 860.576 86.5013 860.918 86.6743C861.26 86.8473 861.556 87.0979 861.781 87.4057L888.508 123.095C888.785 123.461 888.954 123.895 888.995 124.351C889.037 124.806 888.95 125.263 888.744 125.672C888.53 126.073 888.21 126.408 887.819 126.642C887.427 126.876 886.979 127 886.522 127V127ZM837.493 122.06H881.566L859.815 92.931L837.493 122.06Z" fill="#3B82F6"/>
</g>
<g opacity="0.3" clip-path="url(#clip2)">
<path d="M737.026 398C736.721 397.995 736.422 397.92 736.15 397.781C735.879 397.642 735.643 397.443 735.459 397.199L715.751 370.6L695.556 397.293C695.403 397.511 695.208 397.695 694.982 397.835C694.756 397.976 694.504 398.068 694.242 398.109C693.979 398.149 693.711 398.136 693.454 398.07C693.196 398.004 692.955 397.886 692.744 397.724C692.533 397.563 692.357 397.36 692.226 397.128C692.095 396.896 692.012 396.641 691.982 396.376C691.952 396.112 691.975 395.844 692.051 395.588C692.127 395.333 692.254 395.096 692.423 394.891L714.2 366.172C714.389 365.936 714.627 365.743 714.897 365.608C715.168 365.472 715.464 365.397 715.766 365.387C716.072 365.387 716.373 365.46 716.645 365.599C716.917 365.738 717.153 365.94 717.333 366.188L738.608 394.828C738.815 395.123 738.938 395.468 738.965 395.827C738.992 396.186 738.921 396.545 738.76 396.867C738.6 397.189 738.355 397.462 738.053 397.655C737.75 397.849 737.401 397.958 737.042 397.969L737.026 398Z" fill="#EF8E38"/>
<path d="M715.234 360.692C714.928 360.685 714.627 360.607 714.356 360.466C714.084 360.324 713.849 360.122 713.667 359.875L692.392 331.14C692.173 330.722 692.109 330.239 692.212 329.778C692.315 329.317 692.579 328.908 692.955 328.623C693.331 328.338 693.796 328.197 694.267 328.223C694.737 328.25 695.183 328.444 695.525 328.769L715.249 355.4L735.444 328.785C735.769 328.391 736.234 328.139 736.741 328.081C737.248 328.024 737.758 328.165 738.163 328.476C738.569 328.786 738.838 329.242 738.915 329.748C738.992 330.254 738.871 330.77 738.577 331.188L716.816 359.907C716.63 360.15 716.39 360.347 716.116 360.483C715.841 360.619 715.54 360.691 715.234 360.692Z" fill="#EF8E38"/>
</g>
<g opacity="0.3" clip-path="url(#clip3)">
<path d="M110.026 483C109.721 482.995 109.422 482.92 109.15 482.781C108.879 482.642 108.643 482.443 108.459 482.199L88.7507 455.6L68.5563 482.293C68.4032 482.511 68.2078 482.695 67.9819 482.835C67.756 482.976 67.5042 483.068 67.2416 483.109C66.979 483.149 66.711 483.136 66.4536 483.07C66.1963 483.004 65.9549 482.886 65.7439 482.724C65.5329 482.563 65.3566 482.36 65.2257 482.128C65.0947 481.896 65.0118 481.641 64.9819 481.376C64.9519 481.112 64.9755 480.844 65.0513 480.588C65.1271 480.333 65.2535 480.096 65.423 479.891L87.1997 451.172C87.389 450.936 87.627 450.743 87.8974 450.608C88.1678 450.472 88.4642 450.397 88.7663 450.387C89.0719 450.387 89.373 450.46 89.6452 450.599C89.9175 450.738 90.1531 450.94 90.333 451.188L111.608 479.828C111.815 480.123 111.938 480.468 111.965 480.827C111.992 481.186 111.921 481.545 111.76 481.867C111.6 482.189 111.355 482.462 111.053 482.655C110.75 482.849 110.401 482.958 110.042 482.969L110.026 483Z" fill="#EF8E38"/>
<path d="M88.2337 445.692C87.9277 445.685 87.6274 445.607 87.3558 445.466C87.0843 445.324 86.8486 445.122 86.667 444.875L65.3917 416.14C65.1727 415.722 65.1092 415.239 65.2123 414.778C65.3155 414.317 65.5787 413.908 65.9549 413.623C66.3312 413.338 66.7961 413.197 67.2668 413.223C67.7375 413.25 68.1834 413.444 68.525 413.769L88.2493 440.4L108.444 413.785C108.769 413.391 109.234 413.139 109.741 413.081C110.248 413.024 110.758 413.165 111.163 413.476C111.569 413.786 111.838 414.242 111.915 414.748C111.992 415.254 111.871 415.77 111.577 416.188L89.816 444.907C89.6295 445.15 89.39 445.347 89.1157 445.483C88.8414 445.619 88.5397 445.691 88.2337 445.692Z" fill="#EF8E38"/>
</g>
<g opacity="0.4" clip-path="url(#clip4)">
<path d="M640 184C637.033 184 634.133 183.12 631.666 181.472C629.2 179.824 627.277 177.481 626.142 174.74C625.006 171.999 624.709 168.983 625.288 166.074C625.867 163.164 627.296 160.491 629.393 158.393C631.491 156.296 634.164 154.867 637.074 154.288C639.983 153.709 642.999 154.006 645.74 155.142C648.481 156.277 650.824 158.2 652.472 160.666C654.12 163.133 655 166.033 655 169C655 172.978 653.42 176.794 650.607 179.607C647.794 182.42 643.978 184 640 184ZM640 160.23C638.265 160.23 636.57 160.744 635.128 161.708C633.685 162.672 632.561 164.041 631.898 165.644C631.234 167.246 631.06 169.01 631.399 170.711C631.737 172.412 632.572 173.975 633.799 175.201C635.025 176.428 636.588 177.263 638.289 177.601C639.99 177.94 641.754 177.766 643.356 177.102C644.959 176.439 646.328 175.315 647.292 173.872C648.256 172.43 648.77 170.735 648.77 169C648.77 166.674 647.846 164.443 646.201 162.799C644.557 161.154 642.326 160.23 640 160.23Z" fill="#FACC15"/>
</g>
<g opacity="0.4" clip-path="url(#clip5)">
<path d="M400 374C397.033 374 394.133 373.12 391.666 371.472C389.2 369.824 387.277 367.481 386.142 364.74C385.006 361.999 384.709 358.983 385.288 356.074C385.867 353.164 387.296 350.491 389.393 348.393C391.491 346.296 394.164 344.867 397.074 344.288C399.983 343.709 402.999 344.006 405.74 345.142C408.481 346.277 410.824 348.2 412.472 350.666C414.12 353.133 415 356.033 415 359C415 362.978 413.42 366.794 410.607 369.607C407.794 372.42 403.978 374 400 374ZM400 350.23C398.265 350.23 396.57 350.744 395.128 351.708C393.685 352.672 392.561 354.041 391.898 355.644C391.234 357.246 391.06 359.01 391.399 360.711C391.737 362.412 392.572 363.975 393.799 365.201C395.025 366.428 396.588 367.263 398.289 367.601C399.99 367.94 401.754 367.766 403.356 367.102C404.959 366.439 406.328 365.315 407.292 363.872C408.256 362.43 408.77 360.735 408.77 359C408.77 356.674 407.846 354.443 406.201 352.799C404.557 351.154 402.326 350.23 400 350.23Z" fill="#70B815"/>
</g>
<g opacity="0.3">
<path d="M329 90.16L372.385 114.205V161.795L329 185.84L285.615 161.795V114.205L329 90.16ZM329 82L278.479 110V166L329 194L379.521 166V110L329 82Z" fill="#A855F7"/>
</g>
<g opacity="0.3">
<path d="M537 445.1L564.116 460.128V489.872L537 504.9L509.884 489.872V460.128L537 445.1ZM537 440L505.424 457.5V492.5L537 510L568.576 492.5V457.5L537 440Z" fill="#E11D48"/>
</g>
<defs>
<clipPath id="clip0">
<rect width="46" height="64" fill="white" transform="translate(103 138)"/>
</clipPath>
<clipPath id="clip1">
<rect width="59" height="82" fill="white" transform="translate(830 45)"/>
</clipPath>
<clipPath id="clip2">
<rect width="47" height="70" fill="white" transform="translate(692 328)"/>
</clipPath>
<clipPath id="clip3">
<rect width="47" height="70" fill="white" transform="translate(65 413)"/>
</clipPath>
<clipPath id="clip4">
<rect width="30" height="30" fill="white" transform="translate(625 154)"/>
</clipPath>
<clipPath id="clip5">
<rect width="30" height="30" fill="white" transform="translate(385 344)"/>
</clipPath>
</defs>
</svg>
