<svg id="visual" viewBox="0 0 900 600" width="900" height="600" xmlns="http://www.w3.org/2000/svg" xmlns:xlink="http://www.w3.org/1999/xlink" version="1.1"><path d="M0 380L16.7 373.8C33.3 367.7 66.7 355.3 100 354C133.3 352.7 166.7 362.3 200 371.2C233.3 380 266.7 388 300 389.2C333.3 390.3 366.7 384.7 400 372.8C433.3 361 466.7 343 500 343.8C533.3 344.7 566.7 364.3 600 373.7C633.3 383 666.7 382 700 372.5C733.3 363 766.7 345 800 348.2C833.3 351.3 866.7 375.7 883.3 387.8L900 400L900 601L883.3 601C866.7 601 833.3 601 800 601C766.7 601 733.3 601 700 601C666.7 601 633.3 601 600 601C566.7 601 533.3 601 500 601C466.7 601 433.3 601 400 601C366.7 601 333.3 601 300 601C266.7 601 233.3 601 200 601C166.7 601 133.3 601 100 601C66.7 601 33.3 601 16.7 601L0 601Z" fill="#d4d9e4"></path><path d="M0 411L16.7 418C33.3 425 66.7 439 100 444.7C133.3 450.3 166.7 447.7 200 447.7C233.3 447.7 266.7 450.3 300 445.7C333.3 441 366.7 429 400 431.2C433.3 433.3 466.7 449.7 500 452C533.3 454.3 566.7 442.7 600 442.2C633.3 441.7 666.7 452.3 700 457.3C733.3 462.3 766.7 461.7 800 451.3C833.3 441 866.7 421 883.3 411L900 401L900 601L883.3 601C866.7 601 833.3 601 800 601C766.7 601 733.3 601 700 601C666.7 601 633.3 601 600 601C566.7 601 533.3 601 500 601C466.7 601 433.3 601 400 601C366.7 601 333.3 601 300 601C266.7 601 233.3 601 200 601C166.7 601 133.3 601 100 601C66.7 601 33.3 601 16.7 601L0 601Z" fill="#e2e7ef"></path><path d="M0 501L16.7 501C33.3 501 66.7 501 100 501.2C133.3 501.3 166.7 501.7 200 505.2C233.3 508.7 266.7 515.3 300 519.2C333.3 523 366.7 524 400 520.2C433.3 516.3 466.7 507.7 500 500.3C533.3 493 566.7 487 600 492C633.3 497 666.7 513 700 521.5C733.3 530 766.7 531 800 533.2C833.3 535.3 866.7 538.7 883.3 540.3L900 542L900 601L883.3 601C866.7 601 833.3 601 800 601C766.7 601 733.3 601 700 601C666.7 601 633.3 601 600 601C566.7 601 533.3 601 500 601C466.7 601 433.3 601 400 601C366.7 601 333.3 601 300 601C266.7 601 233.3 601 200 601C166.7 601 133.3 601 100 601C66.7 601 33.3 601 16.7 601L0 601Z" fill="#f1f5f9"></path></svg>