<svg width="1440" height="848" viewBox="0 0 1440 848" fill="none" xmlns="http://www.w3.org/2000/svg">
<g clip-path="url(#clip0)">
<rect x="430" y="560" width="288" height="228" rx="36" stroke="#056FDA" stroke-opacity="0.15" stroke-width="2"/>
<rect x="822" y="601" width="288" height="228" rx="34" stroke="#056FDA" stroke-opacity="0.15" stroke-width="2"/>
<rect x="684" y="517" width="288" height="228" rx="36" stroke="#056FDA" stroke-opacity="0.15" stroke-width="2"/>
<rect x="599" y="675" width="288" height="228" rx="36" stroke="#056FDA" stroke-opacity="0.15" stroke-width="2"/>
<rect x="39" y="-73" width="288" height="228" rx="36" stroke="#056FDA" stroke-opacity="0.15" stroke-width="2"/>
<rect x="-88" y="168" width="288" height="228" rx="36" stroke="#056FDA" stroke-opacity="0.15" stroke-width="2"/>
<rect x="126" y="260" width="288" height="228" rx="36" stroke="#056FDA" stroke-opacity="0.15" stroke-width="2"/>
<rect x="49" y="356" width="288" height="228" rx="36" stroke="#056FDA" stroke-opacity="0.15" stroke-width="2"/>
<rect x="-192" y="498" width="288" height="228" rx="36" stroke="#056FDA" stroke-opacity="0.15" stroke-width="2"/>
<rect x="49" y="599" width="288" height="228" rx="36" stroke="#056FDA" stroke-opacity="0.15" stroke-width="2"/>
<rect x="271" y="722" width="288" height="228" rx="36" stroke="#056FDA" stroke-opacity="0.15" stroke-width="2"/>
<rect x="234" y="526" width="288" height="228" rx="36" stroke="#056FDA" stroke-opacity="0.15" stroke-width="2"/>
<rect x="372" y="409" width="288" height="228" rx="36" stroke="#056FDA" stroke-opacity="0.15" stroke-width="2"/>
<rect x="-144" y="-9" width="288" height="228" rx="36" stroke="#056FDA" stroke-opacity="0.15" stroke-width="2"/>
<rect x="98" y="72" width="288" height="228" rx="36" stroke="#056FDA" stroke-opacity="0.15" stroke-width="2"/>
<rect x="227" y="-43" width="288" height="228" rx="36" stroke="#056FDA" stroke-opacity="0.15" stroke-width="2"/>
</g>
<defs>
<clipPath id="clip0">
<rect width="1440" height="848" fill="white"/>
</clipPath>
</defs>
</svg>
