<svg id="visual" viewBox="0 0 960 540" width="960" height="540" xmlns="http://www.w3.org/2000/svg" xmlns:xlink="http://www.w3.org/1999/xlink" version="1.1"><path d="M0 440L17.8 437.3C35.7 434.7 71.3 429.3 106.8 428.8C142.3 428.3 177.7 432.7 213.2 436.7C248.7 440.7 284.3 444.3 320 444.8C355.7 445.3 391.3 442.7 426.8 437.3C462.3 432 497.7 424 533.2 424.3C568.7 424.7 604.3 433.3 640 437.5C675.7 441.7 711.3 441.3 746.8 437.2C782.3 433 817.7 425 853.2 426.3C888.7 427.7 924.3 438.3 942.2 443.7L960 449L960 541L942.2 541C924.3 541 888.7 541 853.2 541C817.7 541 782.3 541 746.8 541C711.3 541 675.7 541 640 541C604.3 541 568.7 541 533.2 541C497.7 541 462.3 541 426.8 541C391.3 541 355.7 541 320 541C284.3 541 248.7 541 213.2 541C177.7 541 142.3 541 106.8 541C71.3 541 35.7 541 17.8 541L0 541Z" fill="#d4d9e4"></path><path d="M0 454L17.8 457.3C35.7 460.7 71.3 467.3 106.8 470C142.3 472.7 177.7 471.3 213.2 471.2C248.7 471 284.3 472 320 469.8C355.7 467.7 391.3 462.3 426.8 463.3C462.3 464.3 497.7 471.7 533.2 472.7C568.7 473.7 604.3 468.3 640 468.2C675.7 468 711.3 473 746.8 475.3C782.3 477.7 817.7 477.3 853.2 472.7C888.7 468 924.3 459 942.2 454.5L960 450L960 541L942.2 541C924.3 541 888.7 541 853.2 541C817.7 541 782.3 541 746.8 541C711.3 541 675.7 541 640 541C604.3 541 568.7 541 533.2 541C497.7 541 462.3 541 426.8 541C391.3 541 355.7 541 320 541C284.3 541 248.7 541 213.2 541C177.7 541 142.3 541 106.8 541C71.3 541 35.7 541 17.8 541L0 541Z" fill="#e2e7ef"></path><path d="M0 495L17.8 495C35.7 495 71.3 495 106.8 495C142.3 495 177.7 495 213.2 496.5C248.7 498 284.3 501 320 502.8C355.7 504.7 391.3 505.3 426.8 503.7C462.3 502 497.7 498 533.2 494.7C568.7 491.3 604.3 488.7 640 491C675.7 493.3 711.3 500.7 746.8 504.5C782.3 508.3 817.7 508.7 853.2 509.5C888.7 510.3 924.3 511.7 942.2 512.3L960 513L960 541L942.2 541C924.3 541 888.7 541 853.2 541C817.7 541 782.3 541 746.8 541C711.3 541 675.7 541 640 541C604.3 541 568.7 541 533.2 541C497.7 541 462.3 541 426.8 541C391.3 541 355.7 541 320 541C284.3 541 248.7 541 213.2 541C177.7 541 142.3 541 106.8 541C71.3 541 35.7 541 17.8 541L0 541Z" fill="#f1f5f9"></path></svg>