<svg id="visual" viewBox="0 0 960 220" width="960" height="220" xmlns="http://www.w3.org/2000/svg" xmlns:xlink="http://www.w3.org/1999/xlink" version="1.1"><path d="M0 132L32 135.7C64 139.3 128 146.7 192 151.2C256 155.7 320 157.3 384 158C448 158.7 512 158.3 576 152.8C640 147.3 704 136.7 768 137.7C832 138.7 896 151.3 928 157.7L960 164L960 221L928 221C896 221 832 221 768 221C704 221 640 221 576 221C512 221 448 221 384 221C320 221 256 221 192 221C128 221 64 221 32 221L0 221Z" fill="#f1f5f9"></path></svg>