<svg width="960" height="540" viewBox="0 0 960 540" fill="none" xmlns="http://www.w3.org/2000/svg">
<g opacity="0.05">
<g clip-path="url(#clip0)">
<path d="M286.156 110.933C286.147 111.392 285.941 111.841 285.59 112.177L276.726 119.778C276.489 119.97 276.179 120.106 275.858 120.145L221.204 126.783C220.754 126.838 220.345 126.692 219.992 126.474L253.744 83.3889L285.55 109.702C285.911 109.985 286.13 110.447 286.156 110.933V110.933Z" fill="#FFA000"/>
<path d="M253.744 83.3889L219.992 126.474C219.696 126.183 219.456 125.821 219.401 125.371L212.372 67.5028C212.333 67.1814 212.39 66.8482 212.52 66.5715L217.778 56.1457C218.021 55.7244 218.436 55.3807 218.914 55.2898C219.388 55.167 219.898 55.3333 220.263 55.648L253.744 83.3889Z" fill="#FFB300"/>
<path d="M276.911 48.2449L219.043 55.2741C218.155 55.3819 217.523 56.1899 217.631 57.077L225.05 118.16C225.158 119.048 225.965 119.68 226.853 119.572L284.721 112.543C285.608 112.435 286.241 111.628 286.133 110.74L278.714 49.6574C278.606 48.7703 277.798 48.1372 276.911 48.2449V48.2449Z" fill="#FFC107"/>
<path d="M294.114 101.886C283.961 96.8004 281.647 75.9053 279.607 57.4667C279.311 54.8141 279.022 52.1969 278.714 49.6574C278.606 48.7703 277.798 48.1372 276.911 48.2449L219.043 55.2741C218.155 55.3819 217.523 56.1899 217.631 57.077C220.288 78.9577 225.006 104.907 238.012 111.421C238.297 111.563 238.617 111.619 238.932 111.58L293.585 104.942C294.296 104.855 294.862 104.313 294.986 103.61C295.106 102.907 294.753 102.207 294.114 101.886V101.886Z" fill="#FFD54F"/>
<path d="M284.721 112.543L226.853 119.572C225.965 119.68 225.158 119.048 225.05 118.16L217.631 57.077C217.523 56.1899 218.155 55.3819 219.043 55.2741L276.911 48.2449C277.798 48.1372 278.606 48.7703 278.714 49.6574C278.821 50.5445 278.189 51.3525 277.302 51.4602L221.041 58.2942L228.07 116.162L282.723 109.524L282.137 104.701C282.03 103.814 282.662 103.006 283.55 102.898C284.437 102.791 285.244 103.423 285.352 104.311L286.133 110.74C286.241 111.628 285.608 112.435 284.721 112.543V112.543Z" fill="black"/>
<path d="M275.858 120.145L221.204 126.783C220.317 126.891 219.509 126.258 219.401 125.371L212.372 67.5028C212.333 67.1843 212.39 66.8645 212.534 66.5793L217.793 56.1536C218.194 55.3545 219.164 55.0342 219.966 55.4362C220.766 55.8384 221.086 56.8138 220.684 57.6099L215.646 67.5979L222.421 123.373L274.982 116.988L283.473 109.706C284.15 109.125 285.173 109.2 285.755 109.882C286.336 110.559 286.259 111.583 285.579 112.165L276.715 119.766C276.473 119.975 276.176 120.106 275.858 120.145V120.145Z" fill="black"/>
<path d="M221.204 126.783C220.793 126.833 220.362 126.726 220.009 126.452C219.306 125.901 219.182 124.882 219.733 124.179L225.382 116.968C225.932 116.265 226.952 116.141 227.655 116.692C228.358 117.243 228.482 118.262 227.931 118.965L222.282 126.176C222.008 126.526 221.616 126.733 221.204 126.783Z" fill="black"/>
<path d="M293.585 104.942L238.932 111.58C238.617 111.619 238.297 111.563 238.012 111.421C225.006 104.907 220.288 78.9577 217.631 57.077C217.523 56.1899 218.155 55.3819 219.043 55.2741C219.93 55.1663 220.738 55.7994 220.845 56.6865C223.374 77.5065 227.729 102.097 239.043 108.305L289.031 102.233C280.416 94.1868 278.371 75.7322 276.388 57.8249C276.093 55.1822 275.806 52.575 275.499 50.0479C275.391 49.1607 276.023 48.3528 276.911 48.2449C277.798 48.1372 278.606 48.7703 278.714 49.6574C279.022 52.1939 279.311 54.8141 279.607 57.4667C281.647 75.9053 283.964 96.8029 294.114 101.886C294.753 102.207 295.106 102.907 294.983 103.614C294.862 104.313 294.296 104.855 293.585 104.942V104.942Z" fill="black"/>
</g>
<g clip-path="url(#clip1)">
<path d="M668.171 477.034C668.162 477.49 667.956 477.937 667.607 478.271L658.787 485.836C658.55 486.027 658.242 486.161 657.922 486.2L603.534 492.807C603.086 492.861 602.679 492.716 602.328 492.499L635.916 449.623L667.568 475.808C667.927 476.09 668.145 476.55 668.171 477.034V477.034Z" fill="#FFA000"/>
<path d="M635.915 449.623L602.328 492.499C602.033 492.21 601.794 491.849 601.74 491.401L594.745 433.814C594.706 433.494 594.763 433.162 594.892 432.887L600.125 422.512C600.366 422.093 600.779 421.751 601.255 421.66C601.727 421.538 602.234 421.703 602.597 422.017L635.915 449.623Z" fill="#FFB300"/>
<path d="M658.971 414.649L601.383 421.644C600.5 421.752 599.871 422.556 599.978 423.439L607.361 484.225C607.469 485.109 608.272 485.738 609.156 485.631L666.743 478.636C667.626 478.528 668.255 477.725 668.148 476.842L660.764 416.055C660.657 415.172 659.854 414.542 658.971 414.649V414.649Z" fill="#FFC107"/>
<path d="M676.09 468.03C665.986 462.969 663.684 442.176 661.654 423.826C661.359 421.187 661.071 418.582 660.764 416.055C660.657 415.172 659.854 414.542 658.971 414.649L601.383 421.644C600.5 421.752 599.871 422.556 599.978 423.439C602.623 445.213 607.317 471.037 620.26 477.519C620.544 477.66 620.862 477.716 621.175 477.677L675.564 471.071C676.271 470.985 676.835 470.446 676.958 469.746C677.077 469.047 676.726 468.349 676.09 468.03V468.03Z" fill="#FFD54F"/>
<path d="M666.743 478.636L609.156 485.631C608.272 485.738 607.469 485.109 607.361 484.225L599.978 423.439C599.871 422.556 600.5 421.752 601.383 421.644L658.971 414.649C659.854 414.542 660.657 415.172 660.764 416.055C660.872 416.938 660.242 417.742 659.359 417.849L603.371 424.65L610.366 482.237L664.755 475.631L664.172 470.832C664.064 469.949 664.694 469.145 665.577 469.038C666.46 468.931 667.263 469.56 667.371 470.443L668.148 476.842C668.255 477.725 667.626 478.528 666.743 478.636V478.636Z" fill="black"/>
<path d="M657.922 486.2L603.534 492.807C602.651 492.914 601.847 492.284 601.74 491.401L594.745 433.814C594.706 433.497 594.762 433.179 594.906 432.895L600.139 422.52C600.539 421.725 601.503 421.406 602.302 421.806C603.097 422.206 603.416 423.177 603.016 423.969L598.003 433.908L604.745 489.413L657.05 483.059L665.501 475.813C666.174 475.234 667.192 475.309 667.772 475.988C668.35 476.661 668.273 477.681 667.596 478.259L658.775 485.824C658.535 486.031 658.239 486.162 657.922 486.2V486.2Z" fill="black"/>
<path d="M603.534 492.807C603.125 492.857 602.696 492.749 602.345 492.477C601.645 491.929 601.522 490.915 602.07 490.215L607.691 483.039C608.239 482.339 609.254 482.216 609.954 482.764C610.653 483.312 610.776 484.327 610.228 485.027L604.607 492.202C604.334 492.55 603.943 492.757 603.534 492.807Z" fill="black"/>
<path d="M675.564 471.071L621.175 477.677C620.862 477.716 620.544 477.66 620.26 477.519C607.317 471.037 602.623 445.213 599.978 423.439C599.871 422.556 600.5 421.752 601.383 421.644C602.266 421.537 603.07 422.167 603.177 423.05C605.694 443.769 610.027 468.241 621.286 474.418L671.032 468.375C662.459 460.368 660.423 442.003 658.45 424.183C658.157 421.553 657.871 418.958 657.565 416.444C657.458 415.561 658.087 414.757 658.971 414.649C659.854 414.542 660.657 415.172 660.764 416.055C661.071 418.579 661.359 421.187 661.654 423.826C663.684 442.176 665.989 462.972 676.09 468.03C676.726 468.349 677.077 469.047 676.955 469.749C676.835 470.446 676.271 470.985 675.564 471.071V471.071Z" fill="black"/>
</g>
<path d="M823.79 61.7691L899.223 61.7691V156.152H823.79V61.7691Z" fill="#B5CEFF"/>
<path d="M888.42 61.7691H899.223V156.152H888.42V61.7691Z" fill="#A4C2FF"/>
<path d="M817 68.6173H892.433V163H817V68.6173Z" fill="#E9F2FF"/>
<path d="M881.63 68.6173H892.433V163H881.63V68.6173Z" fill="#DEEBFF"/>
<path d="M887.51 61.769V61.4152C887.51 60.2956 887.072 59.2442 886.276 58.4548C885.478 57.6628 884.421 57.2334 883.293 57.2411C881.005 57.2594 879.143 59.132 879.143 61.4152V86.3249C879.143 87.5795 880.174 88.6003 881.442 88.6003C882.71 88.6003 883.742 87.5797 883.742 86.3249V78.2119C883.742 77.8172 883.421 77.4961 883.027 77.4961C882.132 77.4961 881.406 76.7706 881.406 75.8756C881.406 74.9806 882.131 74.2551 883.027 74.2551C885.208 74.2551 886.982 76.0299 886.982 78.2116V86.3247C886.982 89.3663 884.497 91.8409 881.442 91.8409C878.387 91.8409 875.902 89.3665 875.902 86.3247V61.4152C875.902 57.3592 879.206 54.033 883.267 54.0002C885.265 53.9843 887.142 54.749 888.558 56.1538C889.972 57.5564 890.751 59.4247 890.751 61.415V61.7688H887.51V61.769Z" fill="#F55745"/>
<g clip-path="url(#clip2)">
<path d="M492.997 268.308H493.014L523.317 260.18C525.104 259.709 526.935 260.771 527.415 262.555L531.73 278.677L533.687 285.985V286.002L542.885 320.286C543.363 322.068 542.308 323.902 540.526 324.383L522.08 329.316L492.997 268.308Z" fill="#F3D55B"/>
<path d="M464.868 261.92C465.655 261.392 466.631 261.233 467.544 261.485L532.164 278.794C533.946 279.275 535.002 281.109 534.523 282.891L517.214 347.512C516.733 349.294 514.899 350.349 513.116 349.87L448.495 332.561C446.713 332.08 445.658 330.246 446.138 328.463L460.052 276.519L464.868 261.92Z" fill="#F9EAB0"/>
<path d="M521.635 290.634C521.489 290.635 521.344 290.616 521.202 290.578L497.414 284.211C496.522 283.972 495.992 283.055 496.232 282.162C496.471 281.27 497.388 280.741 498.28 280.98L522.068 287.355C522.879 287.572 523.403 288.356 523.294 289.188C523.185 290.02 522.476 290.642 521.637 290.643L521.635 290.634Z" fill="#802F34"/>
<path d="M519.036 300.334C518.89 300.334 518.745 300.315 518.603 300.277L502.431 295.95C501.852 295.799 501.397 295.348 501.241 294.769C501.085 294.191 501.251 293.573 501.675 293.149C502.099 292.726 502.718 292.562 503.296 292.719L519.468 297.046C520.279 297.263 520.803 298.047 520.694 298.88C520.584 299.711 519.875 300.334 519.036 300.334Z" fill="#802F34"/>
<path d="M516.446 310.034C516.299 310.034 516.153 310.015 516.011 309.977L495.892 304.577C495 304.337 494.472 303.42 494.711 302.527C494.95 301.635 495.868 301.106 496.76 301.346L516.879 306.746C517.69 306.963 518.214 307.747 518.105 308.58C517.995 309.412 517.285 310.034 516.446 310.034V310.034Z" fill="#802F34"/>
<path d="M466.999 307.167C466.852 307.168 466.706 307.149 466.564 307.111L461.714 305.812C460.822 305.572 460.293 304.654 460.533 303.762C460.772 302.87 461.69 302.341 462.582 302.58L467.432 303.879C468.243 304.097 468.767 304.881 468.658 305.714C468.548 306.546 467.839 307.168 466.999 307.167V307.167Z" fill="#802F34"/>
<path d="M513.843 319.719C513.698 319.719 513.552 319.7 513.411 319.662L476.257 309.7C475.365 309.461 474.835 308.543 475.075 307.65C475.314 306.759 476.231 306.229 477.124 306.469L514.277 316.422C515.087 316.64 515.612 317.423 515.503 318.256C515.393 319.088 514.685 319.71 513.846 319.71L513.843 319.719Z" fill="#802F34"/>
<path d="M464.4 316.859C464.254 316.86 464.108 316.84 463.967 316.802L459.117 315.504C458.225 315.265 457.696 314.348 457.935 313.455C458.174 312.564 459.091 312.034 459.983 312.273L464.833 313.571C465.644 313.788 466.168 314.573 466.059 315.405C465.949 316.237 465.24 316.86 464.4 316.859V316.859Z" fill="#802F34"/>
<path d="M511.248 329.412C511.102 329.412 510.957 329.393 510.815 329.355L473.66 319.399C473.082 319.245 472.632 318.794 472.477 318.217C472.323 317.639 472.488 317.023 472.911 316.601C473.333 316.179 473.949 316.014 474.526 316.168L511.68 326.124C512.49 326.341 513.015 327.125 512.905 327.957C512.796 328.789 512.087 329.411 511.248 329.412V329.412Z" fill="#802F34"/>
<path d="M494.452 303.579L483.432 299.899L492.897 290.434L496.576 301.455C496.774 302.057 496.615 302.72 496.166 303.169C495.718 303.617 495.055 303.776 494.452 303.579V303.579Z" fill="#BDC3C7"/>
<path d="M462.159 259.696L452.693 269.162L447.96 264.429C445.347 261.815 445.347 257.578 447.96 254.964C450.574 252.349 454.812 252.349 457.426 254.964L462.159 259.696Z" fill="#FB7B76"/>
<path d="M492.897 290.434L489.352 293.979V293.996L486.993 296.354H486.977L483.432 299.899L457.426 273.894L460.988 270.348L463.346 267.99L466.892 264.428L492.897 290.434Z" fill="#E64C3C"/>
<path d="M452.694 269.161L462.159 259.695L466.892 264.429L457.427 273.894L452.694 269.161Z" fill="#BDC3C7"/>
<path d="M469.25 276.252C468.932 276.562 468.506 276.735 468.063 276.737C467.624 276.735 467.204 276.561 466.892 276.252L460.988 270.348L463.347 267.99L469.25 273.894C469.898 274.546 469.898 275.6 469.25 276.252Z" fill="#C03A2B"/>
<path d="M489.352 293.979V293.996L486.993 296.354H486.977L471.608 280.985C471.183 280.561 471.018 279.942 471.173 279.363C471.328 278.783 471.781 278.33 472.361 278.176C472.94 278.02 473.558 278.186 473.983 278.61L489.352 293.979Z" fill="#C03A2B"/>
</g>
<path d="M122.831 170.734V243.266C122.831 247.53 119.361 251 115.097 251H64.7375C60.4733 251 57.0032 247.53 57.0032 243.266V170.734C57.0032 166.47 60.4733 163 64.7375 163H115.097C119.361 163 122.831 166.47 122.831 170.734Z" fill="#EEF4FF"/>
<path d="M122.83 170.734V243.266C122.83 247.53 119.359 251 115.095 251H90.0015V163H115.095C119.359 163 122.83 166.47 122.83 170.734Z" fill="#D9E6FC"/>
<path d="M111.83 182.25C111.83 183.673 110.675 184.828 109.251 184.828H70.7515C69.3283 184.828 68.1733 183.673 68.1733 182.25C68.1733 180.827 69.3283 179.672 70.7515 179.672H109.251C110.675 179.672 111.83 180.827 111.83 182.25Z" fill="#425796"/>
<path d="M111.83 182.25C111.83 183.673 110.675 184.828 109.251 184.828H89.8296V179.672H109.251C110.675 179.672 111.83 180.827 111.83 182.25Z" fill="#283758"/>
<path d="M103.58 196C103.58 197.423 102.425 198.578 101.001 198.578H70.7515C69.3283 198.578 68.1733 197.423 68.1733 196C68.1733 194.577 69.3283 193.422 70.7515 193.422H101.001C102.425 193.422 103.58 194.577 103.58 196Z" fill="#425796"/>
<path d="M103.58 196C103.58 197.423 102.425 198.578 101.001 198.578H89.8296V193.422H101.001C102.425 193.422 103.58 194.577 103.58 196Z" fill="#283758"/>
<path d="M95.3296 209.75C95.3296 211.173 94.1746 212.328 92.7515 212.328H70.7515C69.3283 212.328 68.1733 211.173 68.1733 209.75C68.1733 208.327 69.3283 207.172 70.7515 207.172H92.7515C94.1746 207.172 95.3296 208.327 95.3296 209.75Z" fill="#425796"/>
<path d="M95.3296 209.75C95.3296 211.173 94.1746 212.328 92.7515 212.328H89.8296V207.172H92.7515C94.1746 207.172 95.3296 208.327 95.3296 209.75Z" fill="#283758"/>
<path d="M144.286 201.378C143.965 201.921 142.891 203.025 135.693 210.128C131.521 214.245 125.292 220.379 115.963 229.588C115.514 230.033 116.529 229.49 100.658 236.896C98.4662 237.922 96.2215 235.631 97.2304 233.469C104.649 217.575 104.092 218.607 104.551 218.153C113.849 208.855 120.026 202.674 124.132 198.568C132.112 190.584 132.269 190.433 132.288 190.454C134.355 188.783 137.327 188.948 139.187 190.808C143.845 195.465 143.619 195.223 143.845 195.503C145.165 197.112 145.407 199.465 144.286 201.378V201.378Z" fill="#FFE278"/>
<path d="M144.286 201.378C143.779 202.236 141.39 204.491 115.963 229.588C115.515 230.033 116.529 229.49 100.658 236.896C100.309 237.059 99.9358 237.138 99.568 237.138C98.8547 237.138 98.2326 236.858 97.7788 236.416L141.289 192.908C143.774 195.392 143.659 195.273 143.845 195.503C145.165 197.112 145.407 199.465 144.286 201.378Z" fill="#FFB454"/>
<path d="M144.286 201.378C143.965 201.921 142.891 203.025 135.693 210.128L135.679 210.116L129.88 204.317L124.132 198.571V198.568C132.112 190.584 132.269 190.433 132.288 190.454C134.355 188.783 137.327 188.948 139.187 190.808C140.041 191.662 140.73 192.351 141.289 192.908C143.778 195.395 143.661 195.275 143.845 195.503C145.165 197.112 145.407 199.465 144.286 201.378V201.378Z" fill="#DD5958"/>
<path d="M144.286 201.378C143.965 201.921 142.891 203.025 135.693 210.128L135.679 210.116L129.88 204.317L141.289 192.908C143.778 195.395 143.661 195.275 143.845 195.503C145.165 197.112 145.407 199.465 144.286 201.378Z" fill="#D8225B"/>
<path d="M745.831 222.734V295.266C745.831 299.53 742.361 303 738.097 303H687.738C683.473 303 680.003 299.53 680.003 295.266V222.734C680.003 218.47 683.473 215 687.738 215H738.097C742.361 215 745.831 218.47 745.831 222.734Z" fill="#EEF4FF"/>
<path d="M745.83 222.734V295.266C745.83 299.53 742.359 303 738.095 303H713.001V215H738.095C742.359 215 745.83 218.47 745.83 222.734Z" fill="#D9E6FC"/>
<path d="M734.83 234.25C734.83 235.673 733.675 236.828 732.251 236.828H693.751C692.328 236.828 691.173 235.673 691.173 234.25C691.173 232.827 692.328 231.672 693.751 231.672H732.251C733.675 231.672 734.83 232.827 734.83 234.25Z" fill="#425796"/>
<path d="M734.83 234.25C734.83 235.673 733.675 236.828 732.251 236.828H712.83V231.672H732.251C733.675 231.672 734.83 232.827 734.83 234.25Z" fill="#283758"/>
<path d="M726.58 248C726.58 249.423 725.425 250.578 724.001 250.578H693.751C692.328 250.578 691.173 249.423 691.173 248C691.173 246.577 692.328 245.422 693.751 245.422H724.001C725.425 245.422 726.58 246.577 726.58 248Z" fill="#425796"/>
<path d="M726.58 248C726.58 249.423 725.425 250.578 724.001 250.578H712.83V245.422H724.001C725.425 245.422 726.58 246.577 726.58 248Z" fill="#283758"/>
<path d="M718.33 261.75C718.33 263.173 717.175 264.328 715.751 264.328H693.751C692.328 264.328 691.173 263.173 691.173 261.75C691.173 260.327 692.328 259.172 693.751 259.172H715.751C717.175 259.172 718.33 260.327 718.33 261.75Z" fill="#425796"/>
<path d="M718.33 261.75C718.33 263.173 717.175 264.328 715.751 264.328H712.83V259.172H715.751C717.175 259.172 718.33 260.327 718.33 261.75Z" fill="#283758"/>
<path d="M767.286 253.378C766.965 253.921 765.891 255.025 758.693 262.128C754.521 266.245 748.292 272.379 738.963 281.588C738.514 282.033 739.529 281.49 723.658 288.896C721.466 289.922 719.221 287.631 720.23 285.469C727.649 269.575 727.092 270.607 727.551 270.153C736.849 260.855 743.026 254.674 747.132 250.568C755.112 242.584 755.269 242.433 755.288 242.454C757.355 240.783 760.327 240.948 762.187 242.808C766.845 247.465 766.619 247.223 766.845 247.503C768.165 249.112 768.407 251.465 767.286 253.378V253.378Z" fill="#FFE278"/>
<path d="M767.286 253.378C766.779 254.236 764.39 256.491 738.963 281.588C738.515 282.033 739.529 281.49 723.658 288.896C723.309 289.059 722.936 289.138 722.568 289.138C721.855 289.138 721.233 288.858 720.779 288.416L764.289 244.908C766.774 247.392 766.659 247.273 766.845 247.503C768.165 249.112 768.407 251.465 767.286 253.378Z" fill="#FFB454"/>
<path d="M767.286 253.378C766.965 253.921 765.891 255.025 758.693 262.128L758.679 262.116L752.88 256.317L747.132 250.571V250.568C755.112 242.584 755.269 242.433 755.288 242.454C757.355 240.783 760.327 240.948 762.187 242.808C763.041 243.662 763.73 244.351 764.289 244.908C766.778 247.395 766.661 247.275 766.845 247.503C768.165 249.112 768.407 251.465 767.286 253.378V253.378Z" fill="#DD5958"/>
<path d="M767.286 253.378C766.965 253.921 765.891 255.025 758.693 262.128L758.679 262.116L752.88 256.317L764.289 244.908C766.778 247.395 766.661 247.275 766.845 247.503C768.165 249.112 768.407 251.465 767.286 253.378Z" fill="#D8225B"/>
<path d="M844.25 392.188H784.594C783.162 392.188 782 391.026 782 389.594C782 388.162 783.162 387 784.594 387H844.25V392.188Z" fill="#DD523C"/>
<path d="M862.406 407.75H784.594C783.162 407.75 782 406.588 782 405.156C782 403.724 783.162 402.562 784.594 402.562H862.406C863.838 402.562 865 403.724 865 405.156C865 406.588 863.838 407.75 862.406 407.75Z" fill="#E76E54"/>
<path d="M862.406 423.312H784.594C783.162 423.312 782 422.151 782 420.719C782 419.287 783.162 418.125 784.594 418.125H862.406C863.838 418.125 865 419.287 865 420.719C865 422.151 863.838 423.312 862.406 423.312Z" fill="#F9873A"/>
<path d="M862.406 454.438H784.594C783.162 454.438 782 453.276 782 451.844C782 450.412 783.162 449.25 784.594 449.25H862.406C863.838 449.25 865 450.412 865 451.844C865 453.276 863.838 454.438 862.406 454.438Z" fill="#FBA61F"/>
<path d="M862.406 438.875H784.594C783.162 438.875 782 437.713 782 436.281C782 434.849 783.162 433.688 784.594 433.688H862.406C863.838 433.688 865 434.849 865 436.281C865 437.713 863.838 438.875 862.406 438.875Z" fill="#FE9D58"/>
<path d="M831.281 470H784.594C783.162 470 782 468.838 782 467.406C782 465.974 783.162 464.812 784.594 464.812H831.281C832.713 464.812 833.875 465.974 833.875 467.406C833.875 468.838 832.713 470 831.281 470Z" fill="#FFCB5A"/>
<path d="M859.812 387H865V392.188H859.812V387Z" fill="#DD523C"/>
<path d="M849.438 387H854.625V392.188H849.438V387Z" fill="#DD523C"/>
<path d="M291.5 196.875H246.938C245.868 196.875 245 196.007 245 194.938C245 193.868 245.868 193 246.938 193H291.5V196.875Z" fill="#DD523C"/>
<path d="M305.062 208.5H246.938C245.868 208.5 245 207.632 245 206.562C245 205.493 245.868 204.625 246.938 204.625H305.062C306.132 204.625 307 205.493 307 206.562C307 207.632 306.132 208.5 305.062 208.5Z" fill="#E76E54"/>
<path d="M305.062 220.125H246.938C245.868 220.125 245 219.257 245 218.188C245 217.118 245.868 216.25 246.938 216.25H305.062C306.132 216.25 307 217.118 307 218.188C307 219.257 306.132 220.125 305.062 220.125Z" fill="#F9873A"/>
<path d="M305.062 243.375H246.938C245.868 243.375 245 242.507 245 241.438C245 240.368 245.868 239.5 246.938 239.5H305.062C306.132 239.5 307 240.368 307 241.438C307 242.507 306.132 243.375 305.062 243.375Z" fill="#FBA61F"/>
<path d="M305.062 231.75H246.938C245.868 231.75 245 230.882 245 229.812C245 228.743 245.868 227.875 246.938 227.875H305.062C306.132 227.875 307 228.743 307 229.812C307 230.882 306.132 231.75 305.062 231.75Z" fill="#FE9D58"/>
<path d="M281.812 255H246.938C245.868 255 245 254.132 245 253.062C245 251.993 245.868 251.125 246.938 251.125H281.812C282.882 251.125 283.75 251.993 283.75 253.062C283.75 254.132 282.882 255 281.812 255Z" fill="#FFCB5A"/>
<path d="M303.125 193H307V196.875H303.125V193Z" fill="#DD523C"/>
<path d="M295.375 193H299.25V196.875H295.375V193Z" fill="#DD523C"/>
<path d="M566.336 157.918C564.061 157.241 562.764 154.845 563.441 152.57L585.513 78.3835C586.19 76.109 588.585 74.8115 590.861 75.4885C593.136 76.1654 594.433 78.5613 593.756 80.8358L571.684 155.022C571.007 157.297 568.612 158.595 566.336 157.918V157.918Z" fill="#607D8B"/>
<path d="M553.972 154.239C551.696 153.562 550.4 151.166 551.077 148.891L573.149 74.7049C573.826 72.4303 576.221 71.1329 578.496 71.8098C580.772 72.4868 582.068 74.8826 581.391 77.1572L559.319 151.343C558.642 153.619 556.247 154.916 553.972 154.239Z" fill="#607D8B"/>
<path d="M566.234 113.024L553.87 109.345C542.507 105.965 536.013 93.9705 539.393 82.6075C542.774 71.2446 554.769 64.7505 566.132 68.1312L600.134 78.2475C602.409 78.9244 603.706 81.3203 603.029 83.5948C602.352 85.8701 599.957 87.1676 597.681 86.4906L563.679 76.3743C556.863 74.3462 549.665 78.2432 547.636 85.06C545.608 91.8769 549.505 99.0749 556.322 101.103L568.686 104.782C570.962 105.459 572.258 107.854 571.582 110.129C570.905 112.404 568.51 113.701 566.234 113.024Z" fill="#607D8B"/>
<path d="M578.701 161.596L545.729 151.787C543.454 151.11 542.157 148.714 542.834 146.439C543.511 144.164 545.907 142.867 548.181 143.543L581.153 153.353C583.428 154.03 584.725 156.426 584.048 158.701C583.371 160.976 580.976 162.273 578.701 161.596Z" fill="#607D8B"/>
<path d="M312.336 441.918C310.061 441.241 308.764 438.845 309.441 436.57L331.513 362.384C332.19 360.109 334.585 358.812 336.861 359.488C339.136 360.165 340.433 362.561 339.756 364.836L317.684 439.022C317.007 441.297 314.612 442.595 312.336 441.918V441.918Z" fill="#607D8B"/>
<path d="M299.972 438.239C297.696 437.562 296.4 435.166 297.077 432.891L319.149 358.705C319.826 356.43 322.221 355.133 324.496 355.81C326.772 356.487 328.068 358.883 327.391 361.157L305.319 435.343C304.642 437.619 302.247 438.916 299.972 438.239Z" fill="#607D8B"/>
<path d="M312.234 397.024L299.87 393.345C288.507 389.965 282.013 377.97 285.393 366.608C288.774 355.245 300.769 348.75 312.132 352.131L346.134 362.247C348.409 362.924 349.706 365.32 349.029 367.595C348.352 369.87 345.957 371.168 343.681 370.491L309.679 360.374C302.863 358.346 295.665 362.243 293.636 369.06C291.608 375.877 295.505 383.075 302.322 385.103L314.686 388.782C316.962 389.459 318.258 391.854 317.582 394.129C316.905 396.404 314.51 397.701 312.234 397.024Z" fill="#607D8B"/>
<path d="M324.701 445.596L291.729 435.787C289.454 435.11 288.157 432.714 288.834 430.439C289.511 428.164 291.907 426.867 294.181 427.543L327.153 437.353C329.428 438.03 330.725 440.426 330.048 442.701C329.371 444.976 326.976 446.273 324.701 445.596Z" fill="#607D8B"/>
<path d="M359.816 144.141H449.184V185.918H359.816V144.141Z" fill="#6E83B7"/>
<path d="M420.484 176.836V182.285H380.16V176.836H420.484Z" fill="#FFB0AA"/>
<path d="M363.449 176.836H369.988V182.285H363.449V176.836Z" fill="#466089"/>
<path d="M371.805 176.836H378.344V182.285H371.805V176.836Z" fill="#466089"/>
<path d="M376.891 169.57H383.43V175.02H376.891V169.57Z" fill="#466089"/>
<path d="M363.449 169.57H375.074V175.02H363.449V169.57Z" fill="#466089"/>
<path d="M418.668 169.57H428.84V175.02H418.668V169.57Z" fill="#466089"/>
<path d="M363.449 162.305H372.531V167.754H363.449V162.305Z" fill="#466089"/>
<path d="M439.012 176.836H445.551V182.285H439.012V176.836Z" fill="#FFE352"/>
<path d="M439.012 169.57H445.551V175.02H439.012V169.57Z" fill="#466089"/>
<path d="M439.012 162.305H445.551V167.754H439.012V162.305Z" fill="#466089"/>
<path d="M439.012 155.039H445.551V160.488H439.012V155.039Z" fill="#466089"/>
<path d="M430.656 176.836H437.195V182.285H430.656V176.836Z" fill="#FFE352"/>
<path d="M430.656 169.57H437.195V175.02H430.656V169.57Z" fill="#FFE352"/>
<path d="M422.301 176.836H428.84V182.285H422.301V176.836Z" fill="#FFE352"/>
<path d="M380.887 162.305V167.754H374.348V162.305H380.887Z" fill="#FFB0AA"/>
<path d="M363.449 155.039H369.988V160.488H363.449V155.039Z" fill="#466089"/>
<path d="M363.449 147.773H368.898V153.223H363.449V147.773Z" fill="#466089"/>
<path d="M370.715 147.773H376.164V153.223H370.715V147.773Z" fill="#466089"/>
<path d="M377.98 147.773H383.43V153.223H377.98V147.773Z" fill="#466089"/>
<path d="M385.246 147.773H390.695V153.223H385.246V147.773Z" fill="#466089"/>
<path d="M392.512 147.773H397.961V153.223H392.512V147.773Z" fill="#466089"/>
<path d="M399.777 147.773H405.227V153.223H399.777V147.773Z" fill="#466089"/>
<path d="M407.043 147.773H412.492V153.223H407.043V147.773Z" fill="#466089"/>
<path d="M401.775 138.691H407.225V144.141H401.775V138.691Z" fill="#466089"/>
<path d="M414.309 147.773H419.758V153.223H414.309V147.773Z" fill="#466089"/>
<path d="M421.574 147.773H427.023V153.223H421.574V147.773Z" fill="#466089"/>
<path d="M428.84 147.773H434.289V153.223H428.84V147.773Z" fill="#466089"/>
<path d="M436.105 147.773H445.551V153.223H436.105V147.773Z" fill="#466089"/>
<path d="M389.242 162.305V167.754H382.703V162.305H389.242Z" fill="#FFB0AA"/>
<path d="M397.598 162.305V167.754H391.059V162.305H397.598Z" fill="#FFB0AA"/>
<path d="M399.414 162.305H405.953V167.754H399.414V162.305Z" fill="#466089"/>
<path d="M407.77 162.305H414.309V167.754H407.77V162.305Z" fill="#466089"/>
<path d="M416.125 162.305H422.664V167.754H416.125V162.305Z" fill="#466089"/>
<path d="M371.805 155.039H378.344V160.488H371.805V155.039Z" fill="#466089"/>
<path d="M386.699 155.039V160.488H380.16V155.039H386.699Z" fill="#FFB0AA"/>
<path d="M388.516 155.039H395.055V160.488H388.516V155.039Z" fill="#466089"/>
<path d="M396.871 155.039H403.41V160.488H396.871V155.039Z" fill="#466089"/>
<path d="M405.227 155.039H411.766V160.488H405.227V155.039Z" fill="#466089"/>
<path d="M413.582 155.039H420.121V160.488H413.582V155.039Z" fill="#466089"/>
<path d="M421.938 155.039H428.477V160.488H421.938V155.039Z" fill="#466089"/>
<path d="M430.293 155.039V162.305H424.662V167.754H437.195V155.039H430.293Z" fill="#98CA69"/>
<path d="M385.246 169.57H391.785V175.02H385.246V169.57Z" fill="#466089"/>
<path d="M393.602 169.57H400.141V175.02H393.602V169.57Z" fill="#466089"/>
<path d="M401.957 169.57H408.496V175.02H401.957V169.57Z" fill="#466089"/>
<path d="M410.312 169.57H416.852V175.02H410.312V169.57Z" fill="#466089"/>
<path d="M406.316 138.691H402.684V137.057C402.684 134.052 405.128 131.607 408.133 131.607H414.854C416.957 131.607 418.668 129.896 418.668 127.793C418.668 125.69 416.957 123.979 414.854 123.979H408.133C405.128 123.979 402.684 121.534 402.684 118.529V110.9H406.316V118.529C406.316 119.531 407.131 120.346 408.133 120.346H414.854C418.96 120.346 422.301 123.687 422.301 127.793C422.301 131.899 418.96 135.24 414.854 135.24H408.133C407.131 135.24 406.316 136.055 406.316 137.057V138.691Z" fill="#6E83B7"/>
<path d="M424.816 461.141H514.184V502.918H424.816V461.141Z" fill="#6E83B7"/>
<path d="M485.484 493.836V499.285H445.16V493.836H485.484Z" fill="#FFB0AA"/>
<path d="M428.449 493.836H434.988V499.285H428.449V493.836Z" fill="#466089"/>
<path d="M436.805 493.836H443.344V499.285H436.805V493.836Z" fill="#466089"/>
<path d="M441.891 486.57H448.43V492.02H441.891V486.57Z" fill="#466089"/>
<path d="M428.449 486.57H440.074V492.02H428.449V486.57Z" fill="#466089"/>
<path d="M483.668 486.57H493.84V492.02H483.668V486.57Z" fill="#466089"/>
<path d="M428.449 479.305H437.531V484.754H428.449V479.305Z" fill="#466089"/>
<path d="M504.012 493.836H510.551V499.285H504.012V493.836Z" fill="#FFE352"/>
<path d="M504.012 486.57H510.551V492.02H504.012V486.57Z" fill="#466089"/>
<path d="M504.012 479.305H510.551V484.754H504.012V479.305Z" fill="#466089"/>
<path d="M504.012 472.039H510.551V477.488H504.012V472.039Z" fill="#466089"/>
<path d="M495.656 493.836H502.195V499.285H495.656V493.836Z" fill="#FFE352"/>
<path d="M495.656 486.57H502.195V492.02H495.656V486.57Z" fill="#FFE352"/>
<path d="M487.301 493.836H493.84V499.285H487.301V493.836Z" fill="#FFE352"/>
<path d="M445.887 479.305V484.754H439.348V479.305H445.887Z" fill="#FFB0AA"/>
<path d="M428.449 472.039H434.988V477.488H428.449V472.039Z" fill="#466089"/>
<path d="M428.449 464.773H433.898V470.223H428.449V464.773Z" fill="#466089"/>
<path d="M435.715 464.773H441.164V470.223H435.715V464.773Z" fill="#466089"/>
<path d="M442.98 464.773H448.43V470.223H442.98V464.773Z" fill="#466089"/>
<path d="M450.246 464.773H455.695V470.223H450.246V464.773Z" fill="#466089"/>
<path d="M457.512 464.773H462.961V470.223H457.512V464.773Z" fill="#466089"/>
<path d="M464.777 464.773H470.227V470.223H464.777V464.773Z" fill="#466089"/>
<path d="M472.043 464.773H477.492V470.223H472.043V464.773Z" fill="#466089"/>
<path d="M466.775 455.691H472.225V461.141H466.775V455.691Z" fill="#466089"/>
<path d="M479.309 464.773H484.758V470.223H479.309V464.773Z" fill="#466089"/>
<path d="M486.574 464.773H492.023V470.223H486.574V464.773Z" fill="#466089"/>
<path d="M493.84 464.773H499.289V470.223H493.84V464.773Z" fill="#466089"/>
<path d="M501.105 464.773H510.551V470.223H501.105V464.773Z" fill="#466089"/>
<path d="M454.242 479.305V484.754H447.703V479.305H454.242Z" fill="#FFB0AA"/>
<path d="M462.598 479.305V484.754H456.059V479.305H462.598Z" fill="#FFB0AA"/>
<path d="M464.414 479.305H470.953V484.754H464.414V479.305Z" fill="#466089"/>
<path d="M472.77 479.305H479.309V484.754H472.77V479.305Z" fill="#466089"/>
<path d="M481.125 479.305H487.664V484.754H481.125V479.305Z" fill="#466089"/>
<path d="M436.805 472.039H443.344V477.488H436.805V472.039Z" fill="#466089"/>
<path d="M451.699 472.039V477.488H445.16V472.039H451.699Z" fill="#FFB0AA"/>
<path d="M453.516 472.039H460.055V477.488H453.516V472.039Z" fill="#466089"/>
<path d="M461.871 472.039H468.41V477.488H461.871V472.039Z" fill="#466089"/>
<path d="M470.227 472.039H476.766V477.488H470.227V472.039Z" fill="#466089"/>
<path d="M478.582 472.039H485.121V477.488H478.582V472.039Z" fill="#466089"/>
<path d="M486.938 472.039H493.477V477.488H486.938V472.039Z" fill="#466089"/>
<path d="M495.293 472.039V479.305H489.662V484.754H502.195V472.039H495.293Z" fill="#98CA69"/>
<path d="M450.246 486.57H456.785V492.02H450.246V486.57Z" fill="#466089"/>
<path d="M458.602 486.57H465.141V492.02H458.602V486.57Z" fill="#466089"/>
<path d="M466.957 486.57H473.496V492.02H466.957V486.57Z" fill="#466089"/>
<path d="M475.312 486.57H481.852V492.02H475.312V486.57Z" fill="#466089"/>
<path d="M471.316 455.691H467.684V454.057C467.684 451.052 470.128 448.607 473.133 448.607H479.854C481.957 448.607 483.668 446.896 483.668 444.793C483.668 442.69 481.957 440.979 479.854 440.979H473.133C470.128 440.979 467.684 438.534 467.684 435.529V427.9H471.316V435.529C471.316 436.531 472.131 437.346 473.133 437.346H479.854C483.96 437.346 487.301 440.687 487.301 444.793C487.301 448.899 483.96 452.24 479.854 452.24H473.133C472.131 452.24 471.316 453.055 471.316 454.057V455.691Z" fill="#6E83B7"/>
<path d="M162.407 461.817L121.757 410.762C121.308 410.2 120.588 409.929 119.88 410.057L83.0241 416.713C81.971 416.879 81.2518 417.867 81.4177 418.92C81.4215 418.944 81.4257 418.967 81.4303 418.991L92.2022 481.198C92.3808 482.264 93.3899 482.984 94.4561 482.806C94.4716 482.803 94.4873 482.8 94.5027 482.797L162.327 470.313L162.541 470.248C163.511 469.957 164.099 468.974 163.896 467.981L162.8 462.638C162.735 462.337 162.601 462.056 162.407 461.817Z" fill="#FFA000"/>
<path d="M156.335 396.163C155.902 395.173 154.748 394.721 153.757 395.154C153.752 395.157 153.747 395.159 153.742 395.161L138.215 401.964L92.3553 422.055C91.3721 422.481 90.9143 423.619 91.328 424.607L115.208 482.819C115.593 483.756 116.63 484.244 117.598 483.945L117.811 483.88L181.07 456.415C182.062 455.984 182.516 454.831 182.085 453.839C182.082 453.831 182.079 453.824 182.075 453.816L156.335 396.163Z" fill="#FFE082"/>
<path d="M132.312 418.064C131.278 418.382 130.183 417.8 129.866 416.767C129.713 416.269 129.766 415.73 130.011 415.27L136.521 403.054C137.013 402.091 138.192 401.709 139.155 402.201C140.118 402.692 140.499 403.872 140.008 404.834C139.997 404.855 139.987 404.875 139.976 404.894L133.466 417.111C133.223 417.569 132.808 417.912 132.312 418.064Z" fill="#455A64"/>
<path d="M145.01 406.008C150.181 404.432 153.096 398.963 151.52 393.792C149.944 388.621 144.474 385.706 139.303 387.282C134.132 388.858 131.218 394.328 132.794 399.499C134.37 404.67 139.839 407.584 145.01 406.008Z" fill="#F44336"/>
<path d="M162.541 470.248L162.327 470.313L139.073 474.592C138.01 474.788 136.989 474.085 136.793 473.022C136.793 473.021 136.793 473.02 136.793 473.02C136.61 471.958 137.309 470.946 138.365 470.739L159.655 466.822L158.958 463.436C158.765 462.381 159.439 461.362 160.485 461.125C161.544 460.908 162.579 461.59 162.796 462.65C162.796 462.65 162.796 462.651 162.796 462.651L163.892 467.994C164.088 468.981 163.504 469.956 162.541 470.248Z" fill="black"/>
<path d="M115.532 478.897L115.315 478.964L94.5029 482.797C93.4412 483.001 92.4149 482.306 92.2107 481.245C92.2077 481.229 92.2049 481.214 92.2023 481.198L81.4305 418.991C81.2234 417.948 81.9015 416.934 82.9451 416.727C82.9713 416.722 82.9977 416.717 83.0243 416.713L119.88 410.057C120.952 409.916 121.936 410.67 122.077 411.742C122.209 412.742 121.558 413.679 120.574 413.905L85.6364 420.235L95.7381 478.577L114.605 475.103C115.657 474.846 116.718 475.49 116.975 476.542C117.232 477.594 116.588 478.655 115.536 478.912L115.532 478.897V478.897Z" fill="black"/>
<path d="M132.312 418.064C131.278 418.382 130.183 417.8 129.866 416.767C129.713 416.269 129.766 415.73 130.011 415.27L136.521 403.054C137.013 402.091 138.192 401.709 139.155 402.201C140.118 402.692 140.499 403.872 140.008 404.834C139.997 404.855 139.987 404.875 139.976 404.894L133.466 417.111C133.223 417.569 132.808 417.912 132.312 418.064Z" fill="black"/>
<path d="M117.598 483.945C116.63 484.245 115.593 483.756 115.208 482.819L91.328 424.607C90.9143 423.619 91.3721 422.481 92.3553 422.055L138.215 401.964C139.183 401.484 140.358 401.879 140.838 402.848C141.319 403.816 140.923 404.991 139.955 405.472C139.899 405.499 139.843 405.524 139.785 405.546L95.6815 424.885L118.079 479.48L177.69 453.598L153.538 399.541L150.337 400.926C149.369 401.407 148.194 401.011 147.713 400.043C147.233 399.074 147.628 397.899 148.597 397.419C148.652 397.391 148.709 397.366 148.767 397.344L153.742 395.161C154.728 394.719 155.886 395.161 156.328 396.148C156.331 396.153 156.333 396.158 156.335 396.164L182.088 453.805C182.531 454.791 182.092 455.949 181.106 456.393C181.098 456.396 181.09 456.4 181.083 456.403L117.824 483.868L117.598 483.945Z" fill="black"/>
<path d="M145.01 406.008C139.839 407.584 134.37 404.67 132.794 399.499C131.218 394.328 134.132 388.858 139.303 387.282C144.474 385.706 149.944 388.621 151.52 393.792C153.096 398.963 150.181 404.432 145.01 406.008ZM140.445 391.027C137.342 391.973 135.593 395.255 136.539 398.357C137.484 401.46 140.766 403.209 143.869 402.263C146.971 401.318 148.72 398.036 147.775 394.933C146.829 391.831 143.547 390.082 140.445 391.027Z" fill="black"/>
</g>
<defs>
<clipPath id="clip0">
<rect width="77.7256" height="77.7256" fill="white" transform="translate(210.619 53.0742) rotate(-6.9257)"/>
</clipPath>
<clipPath id="clip1">
<rect width="77.3484" height="77.3484" fill="white" transform="translate(593 419.455) rotate(-6.9257)"/>
</clipPath>
<clipPath id="clip2">
<rect width="97" height="97" fill="white" transform="translate(446 253)"/>
</clipPath>
</defs>
</svg>
